<svg width="24" height="24" viewBox="0 0 24 24" fill="none" xmlns="http://www.w3.org/2000/svg" preserveAspectRatio="xMinYMid meet"><defs><style>.cls-1{fill:#000;stroke-width:0}</style></defs><path class="cls-1" d="M16 10.4c-3.1 0-5.6 2.5-5.6 5.6s2.5 5.6 5.6 5.6 5.6-2.5 5.6-5.6-2.5-5.6-5.6-5.6zm0 9.6c-2.2 0-4-1.8-4-4s1.8-4 4-4 4 1.8 4 4-1.8 4-4 4zM9.6 6C7.5 6 5.9 7.7 5.9 9.7s1.4 3.4 3.2 3.7c.6-2 2.2-3.5 4.1-4.1-.2-1.8-1.8-3.2-3.7-3.2z"/><path class="cls-1" d="M9.8 2.6c-4 0-7.2 3.2-7.2 7.2s2.9 6.9 6.5 7.2c0-.6-.2-1-.2-1.6V15v.3c-2.7-.4-4.8-2.7-4.8-5.5s2.5-5.6 5.6-5.6 5.1 2.1 5.5 4.8h-.3.4c.6 0 1 0 1.6.2-.3-3.7-3.4-6.5-7.2-6.5z"/></svg>
